Coordinates
version=1
nRows=14
nColumns=28
inDegrees=yes

Units are S.I. units (second, meters, Newtons, ...)
Angles are in degrees.

endheader
time	pelvis_tilt	pelvis_list	pelvis_rotation	pelvis_tx	pelvis_ty	pelvis_tz	hip_flexion_r	hip_adduction_r	hip_rotation_r	knee_angle_r	ankle_angle_r	subtalar_angle_r	mtp_angle_r	hip_flexion_l	hip_adduction_l	hip_rotation_l	knee_angle_l	socket_flexion	socket_adduction	socket_rotation	socket_tx	socket_ty	socket_tz	foot_flex	lumbar_extension	lumbar_bending	lumbar_rotation
      0.31250000	      2.16366504	     -1.09132923	     -6.49432809	     -0.42456743	      1.03090748	      0.25668414	     13.09551782	      1.30565965	     -1.52929252	    -65.60835402	      7.90230010	    -15.28531866	     -2.62316632	     -0.52962532	     -1.97329518	     -8.13825175	     -4.46090218	      0.45238027	      4.42313850	     17.54585144	      0.00000000	     -0.00680877	      0.00000000	     -0.15069397	    -10.82883119	     -1.98579423	      5.01058231
      0.31666667	      2.17555099	     -1.32490391	     -6.25782090	     -0.41908991	      1.03134506	      0.25636900	     13.56149312	      1.49793944	     -1.84390344	    -65.24533369	      8.71001930	    -14.99855358	     -2.53175846	     -0.94706744	     -2.19714495	     -8.11682440	     -4.28976152	      0.53609552	      4.46815055	     17.78443977	      0.00000000	     -0.00681072	      0.00000000	      0.15705311	    -10.86356276	     -1.67346138	      4.91994913
      0.32083333	      2.22145369	     -1.34050044	     -6.19731469	     -0.41409853	      1.03186351	      0.25645981	     14.10803721	      1.53289918	     -1.89066758	    -64.91777868	      8.78018882	    -14.95110658	     -2.52607269	     -1.30200976	     -2.19443916	     -8.09774889	     -4.31935909	      0.44484476	      4.46609309	     17.81259233	      0.00000000	     -0.00645241	      0.00000000	      0.16691136	    -10.96636045	     -1.66702662	      4.89999055
      0.32500000	      2.53645959	     -1.72597134	     -5.85287844	     -0.40826814	      1.03273383	      0.25569244	     14.09457642	      1.70910111	     -2.42742721	    -64.30854379	     10.16973050	    -13.16100777	     -3.21531626	     -2.34178395	     -2.48517015	     -7.76542480	     -3.36348217	      0.94124529	      4.65456592	     17.75286905	      0.00000000	     -0.00662979	      0.00000000	      0.28086614	    -11.32452013	     -1.09558004	      4.27813656
      0.32916667	      2.57423513	     -1.73523214	     -5.79752451	     -0.40336436	      1.03313510	      0.25577713	     14.64762179	      1.73270557	     -2.46761761	    -63.93774428	     10.24167001	    -13.15669597	     -3.21269880	     -2.67949423	     -2.47713585	     -7.74278447	     -3.39734304	      0.85794900	      4.64564779	     17.78861541	      0.00000000	     -0.00635165	      0.00000000	      0.32198669	    -11.42739828	     -1.09618814	      4.27522466
      0.33333333	      2.53239819	     -2.14454167	     -5.54533750	     -0.39766146	      1.03353641	      0.25544925	     15.00491720	      2.13005633	     -2.77285005	    -63.21728459	     10.98209465	    -12.53064039	     -3.32142883	     -3.13343539	     -2.90338796	     -7.71219079	     -3.04841222	      1.00099682	      4.73481719	     18.00686371	      0.00000000	     -0.00652961	      0.00000000	      0.49007969	    -11.36212179	     -0.54193309	      4.09462685
      0.33750000	      2.56957402	     -2.14625964	     -5.50183688	     -0.39282711	      1.03384969	      0.25557397	     15.54726005	      2.13374434	     -2.82832943	    -62.78930792	     11.06412426	    -12.52243064	     -3.31990688	     -3.46633731	     -2.89114670	     -7.69891684	     -3.08185501	      0.92430713	      4.72454409	     18.02946233	      0.00000000	     -0.00629026	      0.00000000	      0.54074835	    -11.47284240	     -0.55062415	      4.08572400
      0.34166667	      2.62061037	     -2.50962422	     -5.19304474	     -0.38708515	      1.03432859	      0.25513576	     15.76424856	      2.42341988	     -3.20764309	    -61.97095605	     11.82280278	    -11.83529095	     -3.47609505	     -4.02343630	     -3.25467142	     -7.63309825	     -2.68929768	      1.10298952	      4.80387829	     18.22033367	      0.00000000	     -0.00639158	      0.00000000	      0.72345303	    -11.49800879	     -0.03853866	      3.80533290
      0.34583333	      2.64153053	     -2.52890821	     -5.09178245	     -0.38197642	      1.03471549	      0.25516199	     16.20193388	      2.43642679	     -3.28883316	    -61.33111660	     12.01794907	    -11.79727926	     -3.49345111	     -4.37266324	     -3.26014395	     -7.61997221	     -2.66578302	      1.05284714	      4.79578115	     18.26030833	      0.00000000	     -0.00597508	      0.00000000	      0.84329750	    -11.53976795	     -0.02634922	      3.78213648
      0.35000000	      2.65032066	     -2.61643880	     -4.93944046	     -0.37675614	      1.03502532	      0.25512352	     16.59492192	      2.51070795	     -3.43642297	    -60.61220025	     12.31701867	    -11.69501505	     -3.50307712	     -4.73064054	     -3.34488266	     -7.60842652	     -2.59161102	      1.05076105	      4.80159826	     18.36934954	      0.00000000	     -0.00577045	      0.00000000	      0.98220532	    -11.54658942	      0.08682725	      3.73436321
      0.35416667	      3.05451895	     -3.01202832	     -4.60745400	     -0.37130211	      1.03584065	      0.25453792	     16.44153252	      2.73225011	     -3.94354820	    -59.75261850	     13.09059762	    -10.94949259	     -4.40690641	     -5.81680240	     -3.69042786	     -7.30598622	     -1.70277385	      1.49294001	      4.97498973	     18.32562118	      0.00000000	     -0.00582428	      0.00000000	      1.07996306	    -12.05482540	      0.64609821	      3.22056491
      0.35833333	      3.03567676	     -3.01580727	     -4.52537464	     -0.36624450	      1.03605900	      0.25463275	     16.88553984	      2.74102595	     -3.99406076	    -59.01090196	     13.24902136	    -10.95176369	     -4.42460931	     -6.11367753	     -3.68728151	     -7.31836906	     -1.69833162	      1.44549889	      4.95514872	     18.35739917	      0.00000000	     -0.00549352	      0.00000000	      1.18701239	    -12.05633508	      0.64502897	      3.23573300
      0.36250000	      2.97023776	     -3.35119798	     -4.31436906	     -0.36072723	      1.03612198	      0.25435093	     17.24420369	      3.02229133	     -4.33580762	    -58.11332221	     13.67438702	    -10.79165680	     -4.59413711	     -6.49772921	     -4.04093619	     -7.37067982	     -1.42013263	      1.54410911	      4.99746448	     18.56775068	      0.00000000	     -0.00572582	      0.00000000	      1.29479898	    -11.98545126	      1.11372816	      3.15915388
      0.36666667	      2.97428150	     -3.33187652	     -4.23321288	     -0.35570988	      1.03634348	      0.25452849	     17.63008673	      3.01973297	     -4.36363762	    -57.28644334	     13.80740215	    -10.79092351	     -4.62946619	     -6.81532635	     -4.02116228	     -7.34591247	     -1.41592662	      1.49509546	      4.98808795	     18.61540854	      0.00000000	     -0.00532107	      0.00000000	      1.42521574	    -12.00483825	      1.06971322	      3.13340995
